@startuml
hide empty description

'Simple comment
/'Simple comment'/

state Opening : handState = Open
state Opening : statoMano = Aperto /' inline comment '/
state Closing : handState = Grab
state Fake : object.call()

[*] -down-> Opening

Opening -down-> Closing : azzardo==vero
Opening -down-> Fake : azzardo==false

BlockOpen -up-> Opening : hazard==false

Closing -l-> BlockOpen : elapsedMillis >= 1000

@enduml
